<svg width="33" height="31" viewBox="0 0 33 31" fill="none" xmlns="http://www.w3.org/2000/svg">
<path d="M4.29401 15.4327C3.41116 15.4327 2.56447 15.7834 1.94019 16.4077C1.31592 17.0319 0.96521 17.8786 0.96521 18.7615V19.1313C0.96521 19.1313 0.96521 25.789 9.84202 25.789C18.7188 25.789 18.7188 19.1313 18.7188 19.1313V18.7615C18.7188 17.8786 18.3681 17.0319 17.7439 16.4077C17.1196 15.7834 16.2729 15.4327 15.39 15.4327H4.29401Z" fill="url(#paint0_linear_249_22)"/>
<path d="M4.29401 15.4327C3.41116 15.4327 2.56447 15.7834 1.94019 16.4077C1.31592 17.0319 0.96521 17.8786 0.96521 18.7615V19.1313C0.96521 19.1313 0.96521 25.789 9.84202 25.789C18.7188 25.789 18.7188 19.1313 18.7188 19.1313V18.7615C18.7188 17.8786 18.3681 17.0319 17.7439 16.4077C17.1196 15.7834 16.2729 15.4327 15.39 15.4327H4.29401Z" fill="url(#paint1_linear_249_22)"/>
<path d="M4.29401 15.4327C3.41116 15.4327 2.56447 15.7834 1.94019 16.4077C1.31592 17.0319 0.96521 17.8786 0.96521 18.7615V19.1313C0.96521 19.1313 0.96521 25.789 9.84202 25.789C18.7188 25.789 18.7188 19.1313 18.7188 19.1313V18.7615C18.7188 17.8786 18.3681 17.0319 17.7438 16.4077C17.1196 15.7834 16.2729 15.4327 15.39 15.4327H4.29401Z" fill="url(#paint2_linear_249_22)"/>
<path d="M23.1573 12.4742C24.3344 12.4742 25.4633 12.0066 26.2957 11.1742C27.1281 10.3419 27.5957 9.21296 27.5957 8.03582C27.5957 6.85868 27.1281 5.72975 26.2957 4.89739C25.4633 4.06503 24.3344 3.59741 23.1573 3.59741C21.9801 3.59741 20.8512 4.06503 20.0189 4.89739C19.1865 5.72975 18.7189 6.85868 18.7189 8.03582C18.7189 9.21296 19.1865 10.3419 20.0189 11.1742C20.8512 12.0066 21.9801 12.4742 23.1573 12.4742Z" fill="url(#paint3_linear_249_22)"/>
<path d="M9.84158 12.4747C11.4111 12.4747 12.9163 11.8512 14.0261 10.7414C15.136 9.6316 15.7595 8.12637 15.7595 6.55685C15.7595 4.98733 15.136 3.4821 14.0261 2.37228C12.9163 1.26247 11.4111 0.638977 9.84158 0.638977C8.27206 0.638977 6.76683 1.26247 5.65701 2.37228C4.54719 3.4821 3.92371 4.98733 3.92371 6.55685C3.92371 8.12637 4.54719 9.6316 5.65701 10.7414C6.76683 11.8512 8.27206 12.4747 9.84158 12.4747Z" fill="url(#paint4_linear_249_22)"/>
<path d="M23.8982 30.2306C25.6837 30.2302 27.4195 29.6426 28.8381 28.5584C30.2568 27.4743 31.2795 25.9537 31.7487 24.2309C32.218 22.5082 32.1077 20.679 31.4348 19.0251C30.762 17.3712 29.5639 15.9845 28.0253 15.0787C26.4866 14.1728 24.6928 13.7981 22.9202 14.0122C21.1476 14.2264 19.4946 15.0175 18.2159 16.2637C16.9373 17.5099 16.1039 19.142 15.8442 20.9085C15.5846 22.675 15.913 24.4778 16.779 26.0393L15.7937 29.2734C15.7542 29.4018 15.7505 29.5385 15.7828 29.6688C15.8152 29.7991 15.8824 29.9182 15.9773 30.0132C16.0722 30.1083 16.1912 30.1757 16.3214 30.2083C16.4517 30.2408 16.5884 30.2373 16.7169 30.1981L19.9524 29.2127C21.1212 29.8622 22.4675 30.2306 23.8982 30.2306Z" fill="url(#paint5_linear_249_22)"/>
<path d="M20.9386 21.3531C20.7424 21.3531 20.5542 21.2752 20.4155 21.1365C20.2768 20.9977 20.1989 20.8096 20.1989 20.6134C20.1989 20.4172 20.2768 20.229 20.4155 20.0903C20.5542 19.9516 20.7424 19.8737 20.9386 19.8737H26.8594C27.0556 19.8737 27.2438 19.9516 27.3825 20.0903C27.5212 20.229 27.5992 20.4172 27.5992 20.6134C27.5992 20.8096 27.5212 20.9977 27.3825 21.1365C27.2438 21.2752 27.0556 21.3531 26.8594 21.3531H20.9386ZM23.899 24.3121H20.9401C20.7439 24.3121 20.5557 24.2341 20.417 24.0954C20.2783 23.9567 20.2003 23.7685 20.2003 23.5723C20.2003 23.3761 20.2783 23.188 20.417 23.0493C20.5557 22.9105 20.7439 22.8326 20.9401 22.8326H23.899C24.0952 22.8326 24.2833 22.9105 24.4221 23.0493C24.5608 23.188 24.6387 23.3761 24.6387 23.5723C24.6387 23.7685 24.5608 23.9567 24.4221 24.0954C24.2833 24.2341 24.0952 24.3121 23.899 24.3121Z" fill="#212121"/>
<path d="M20.9386 21.3531C20.7424 21.3531 20.5542 21.2752 20.4155 21.1365C20.2768 20.9977 20.1989 20.8096 20.1989 20.6134C20.1989 20.4172 20.2768 20.229 20.4155 20.0903C20.5542 19.9516 20.7424 19.8737 20.9386 19.8737H26.8594C27.0556 19.8737 27.2438 19.9516 27.3825 20.0903C27.5212 20.229 27.5992 20.4172 27.5992 20.6134C27.5992 20.8096 27.5212 20.9977 27.3825 21.1365C27.2438 21.2752 27.0556 21.3531 26.8594 21.3531H20.9386ZM23.899 24.3121H20.9401C20.7439 24.3121 20.5557 24.2341 20.417 24.0954C20.2783 23.9567 20.2003 23.7685 20.2003 23.5723C20.2003 23.3761 20.2783 23.188 20.417 23.0493C20.5557 22.9105 20.7439 22.8326 20.9401 22.8326H23.899C24.0952 22.8326 24.2833 22.9105 24.4221 23.0493C24.5608 23.188 24.6387 23.3761 24.6387 23.5723C24.6387 23.7685 24.5608 23.9567 24.4221 24.0954C24.2833 24.2341 24.0952 24.3121 23.899 24.3121Z" fill="url(#paint6_linear_249_22)"/>
<defs>
<linearGradient id="paint0_linear_249_22" x1="5.18761" y1="16.8101" x2="8.96913" y2="27.1604" gradientUnits="userSpaceOnUse">
<stop offset="0.125" stop-color="#BD96FF"/>
<stop offset="1" stop-color="#9C6CFE"/>
</linearGradient>
<linearGradient id="paint1_linear_249_22" x1="9.84202" y1="14.2003" x2="15.1785" y2="31.2941" gradientUnits="userSpaceOnUse">
<stop stop-color="#885EDB" stop-opacity="0"/>
<stop offset="1" stop-color="#E362F8"/>
</linearGradient>
<linearGradient id="paint2_linear_249_22" x1="9.84202" y1="15.4327" x2="9.84202" y2="25.789" gradientUnits="userSpaceOnUse">
<stop stop-color="#109932"/>
<stop offset="1" stop-color="#047420"/>
</linearGradient>
<linearGradient id="paint3_linear_249_22" x1="20.8301" y1="4.77803" x2="25.3543" y2="12.0008" gradientUnits="userSpaceOnUse">
<stop offset="0.125" stop-color="#008621"/>
<stop offset="1" stop-color="#109932"/>
</linearGradient>
<linearGradient id="paint4_linear_249_22" x1="6.73766" y1="2.21165" x2="12.7709" y2="11.8445" gradientUnits="userSpaceOnUse">
<stop offset="0.125" stop-color="#109932"/>
<stop offset="1" stop-color="#1CBC44"/>
</linearGradient>
<linearGradient id="paint5_linear_249_22" x1="16.3411" y1="17.0056" x2="30.5514" y2="41.2334" gradientUnits="userSpaceOnUse">
<stop stop-color="#00701C"/>
<stop offset="1" stop-color="#109932"/>
</linearGradient>
<linearGradient id="paint6_linear_249_22" x1="20.8469" y1="19.9521" x2="21.2966" y2="24.7825" gradientUnits="userSpaceOnUse">
<stop stop-color="#FDFDFD"/>
<stop offset="1" stop-color="#CCEAFF"/>
</linearGradient>
</defs>
</svg>
